# This file uses meters as units for non-parametric coordinates.

mtllib LUUKSPYRAMID.mtl
g default
v 0.000000 -1.000000 -1.000000
v -1.000000 -1.000000 -0.000000
v -0.000000 -1.000000 1.000000
v 1.000000 -1.000000 0.000000
v 0.000000 1.000000 0.000000
vt 0.267779 0.464442
vt 0.535558 0.732221
vt 0.267779 1.000000
vt -0.000000 0.732221
vt 0.344380 0.000000
vt 0.714398 0.080609
vt 0.408475 0.595332
vt 0.962047 0.367107
vt 0.000000 0.157524
vt 0.639405 0.505928
vt 0.998668 0.386174
vt 0.998668 0.984946
vn 0.000000 -1.000000 0.000000
vn 0.000000 -1.000000 0.000000
vn 0.000000 -1.000000 0.000000
vn 0.000000 -1.000000 0.000000
vn -0.666667 0.333333 -0.666667
vn -0.666667 0.333333 -0.666667
vn -0.666667 0.333333 -0.666667
vn -0.666667 0.333333 0.666667
vn -0.666667 0.333333 0.666667
vn -0.666667 0.333333 0.666667
vn 0.666667 0.333333 0.666667
vn 0.666667 0.333333 0.666667
vn 0.666667 0.333333 0.666667
vn 0.666667 0.333333 -0.666667
vn 0.666667 0.333333 -0.666667
vn 0.666667 0.333333 -0.666667
s off
g pCone1
usemtl initialShadingGroup
f 1/1/1 4/2/2 3/3/3 2/4/4
f 1/5/5 2/6/6 5/7/7
f 2/6/8 3/8/9 5/7/10
f 3/10/11 4/11/12 5/12/13
f 4/9/14 1/5/15 5/7/16
